<svg version="1.1" xmlns="http://www.w3.org/2000/svg" xmlns:xlink="http://www.w3.org/1999/xlink" x="0px" y="0px"
	 width="128px" height="138px" viewBox="0 0 128 138" style="enable-background:new 0 0 128 138;" xml:space="preserve">
<style type="text/css">
	.st0{fill:#FFFFFF;}
</style>
<g>
	<g>
		<path class="st0" d="M2.9,100.4h122v34.4H2.9V100.4z M2.9,3.2h122v94.2H2.9V3.2z M-0.2,138h128.2V0H-0.2V138z"/>
		<g>
			<path class="st0" d="M18.6,117.8c0,2.4,2,4.4,4.4,4.4c2.4,0,4.4-2,4.4-4.5c0-2.5-2-4.5-4.4-4.5
				C20.5,113.2,18.6,115.2,18.6,117.8 M31,117.7c0,4.3-3.6,7.8-8.1,7.8c-4.4,0-8-3.6-8-8c0-4.2,3.7-7.7,8-7.7
				C27.4,109.8,31,113.4,31,117.7"/>
		</g>
		<polygon class="st0" points="39.2,110.2 42.5,110.2 46.8,117.6 51,110.2 54.3,110.2 54.3,125.1 50.7,125.1
			50.7,117.6 48,122.2 45.5,122.2 42.8,117.6 42.8,125.1 39.2,125.1 		"/>
		<polygon class="st0" points="63.8,110.2 66.8,110.2 73.2,118.6 73.2,110.2 76.9,110.2 76.9,125.1 73.8,125.1
			67.4,116.7 67.4,125.1 63.8,125.1 		"/>
		<rect x="86.3" y="110.2" class="st0" width="3.7" height="14.9"/>
		<path class="st0" d="M105,114.1l-1.5,4.5h3.1L105,114.1z M102.3,122l-1.1,3.1h-3.8l5.6-14.9h4.1l5.6,14.9h-3.9
			l-1.1-3.1H102.3z"/>
	</g>
</g>
</svg>
